<svg id="Layer_1" data-name="Layer 1" xmlns="http://www.w3.org/2000/svg" viewBox="0 0 425.2 425.2"><defs><style>.cls-1{fill:#fff;}</style></defs><title>Me</title><path d="M171.3,424.5c0-5.3.3-10.7-1.1-15.8a15.5,15.5,0,0,1,.5-9.3,12.6,12.6,0,0,0-.8-9.5,3.1,3.1,0,0,0-2.5-1.9c-1.2-.1-1.3,1.2-1.5,2s-1,3.4-1.6,5.1a7.4,7.4,0,0,1-9.6,4.9,103.1,103.1,0,0,1-12.6-5,94.7,94.7,0,0,1-10.3-5.9,10.4,10.4,0,0,1-1.7-1.2c-1.4-1.4-1.4-2.5.1-3.8l7-5.8c3.5-3,5.6-7.1,8.4-10.7,0-.1.1-.2.2-.3,3.3-3.1,5.6-7.1,8.3-10.7s5.5-4.3,8.8-5.6a32.2,32.2,0,0,1,8.6-2.3A19.3,19.3,0,0,1,181,350c1.9.8,2.5,3,3.1,4.7,1.5,4.2,4.6,7.2,7.4,10.5.7.8,1.8,1.1,2.7,1.8s3.5,1.6,5.2,2.6,2.8.7,4.5.1a55.3,55.3,0,0,1,10-3.1,20.3,20.3,0,0,1,9.8.1c1.1.4,1.9-.4,2.5-1.3,2-2.6,4.5-3.5,7.7-2.2,1.6.7,3.3,1.2,5,0a2,2,0,0,1,2.5.2c1.1,1,2.4.8,3.8.8,3.3-.2,6.3-1.7,9.5-2.1a57.8,57.8,0,0,0,10.1-1.8,5.5,5.5,0,0,0,2.2-1c2.5-2.1,5.4-2.5,8.6-2.1a5.9,5.9,0,0,0,4.1-.7,36,36,0,0,1,7.7-3.6c2.4-.9,3.9-3.2,5.7-5.1a5.6,5.6,0,0,1,3.6-1.9c3.2-.5,5.7-2.5,7.7-4.9s7.5-5.4,11.1-5.2c.1,1.6.2,3.3.2,5.1-.1,3.7-2.3,7.3-.9,11.2.6,1.6-.7,3.2-1.5,4.5s-1.9,4.9-3.2,7-2.2,7.8-4,11.4a10.1,10.1,0,0,0-1.6,4.5c-.2,1.7-1.9,2.4-2.6,3.8a11.3,11.3,0,0,0-1.3,2,16.4,16.4,0,0,1-5.1,7.7,2,2,0,0,0-.6,1.5c-.3,2.6-1.6,4.8-2.3,7.3s-2.7,3.4-3.9,5.2a19.9,19.9,0,0,1-7.5,6.6,19.8,19.8,0,0,0-5.4,5,3,3,0,0,1-1.3,1.2c-2,1-2.6,2.6-2.4,4.7Zm.2-49.1h.1v8.1c.2,5.4,2.8,8.9,7.8,10.8,2.3.8,4,0,4.1-2.3s2-6.9-2.3-8.9l-.3-.3c-1-1.5-.6-2.6,1.1-3l3.2-.5c.8-.1,1.7.1,1.9-.8s-.8-1.4-1.5-1.7a25.5,25.5,0,0,1-6.3-3.9c-1.1-.9-2.3-1.9-2-3.3s.4-3.6,2.1-4.9a1.8,1.8,0,0,0,.3-2.7c-.8-1-1.5-1.9-3.1-1.5a6.6,6.6,0,0,0-5.1,6.8Z"/><path d="M113.4,93.4c-1.4,6.2-4.7,11.6-4.9,17.9,3.5-5.4,4.8-11.8,8.4-17.2-2.7,9.1-7.4,17.5-9,27.4,1.9-.8,1.5-2.6,2.5-3.3s.8,1,.6,1.6-.9,3.5.2,5.3.2,1.9.1,2.8c-.1,5.3-1.1,10.5-.9,15.8a3.9,3.9,0,0,0,.7,2.7,15.6,15.6,0,0,0,.9-4.7c.8-6.5.4-13.1,1.1-19.7.2-2.4.2-4.9,2.9-6.2.8-.4.9-1.5,1.1-2.3.9-3,1.1-6.2,2.4-9,.6-1.2-.1-1.7-1-2.2.4-2.6.9-5.1,2.5-7.3s2.1-4,3.1-6c2.3-4.7,6.3-7.9,10.4-11,1.2-.9,3-.5,3.9-1.6,2.3-3,5.3-3.9,8.8-4.3s4.3-1.8,6.5-2.4c.2-.7-.7-.5-.6-1s2.7.3,4.2.4c-.4-1.3-1.9-1-2.4-2.3,1.6,0,3.5.9,4.4-.6s5-1.9,7.5-2.7l.6-.3c-.6-1.2-2-.5-2.8-1.2,3.1-2.2,6.8-2.7,10.3-3.9-.4-1.3-1.6-.9-1.9-1.6s.6-.9.4-1.6-3.2-1.6-5.2-.4c0-1.2.8-1.5,1.4-2a16.9,16.9,0,0,0,3.2-2.8c.5-.8,1.2-.7,1.9-.6l2.7.4c-.9-2.2.4-2.5,2-2.5a26.6,26.6,0,0,1,6.3,0c1.8.4,3.2-1,5-1.1-.5-1.4-1-2.5-1.5-3.6a3.2,3.2,0,0,1,.6-4.2c1.2-1.2,2.6-2.5,3-4.4s.5-.6,1.2-.6-.3,2,1,2.4.7.4.8,1a7.1,7.1,0,0,0,5.1,6,2.7,2.7,0,0,1,1.6,1.7,28.5,28.5,0,0,1,1.1,3.9c.3,1.4,1.2,2.1,2.5,2.9-.3-2.1.2-3.9-.2-5.7s-.6-1.8.4-2.2,1.3.6,1.7,1.3l.3.4c.7.4,1.2-.5,2-.1s.3,2.2,1.4,2.8.6-1,1.4-1.5a12.2,12.2,0,0,0,4.5,6c.9-1.6-.3-3.3.3-4.8s1.1.6,1.7.7-.2-1.1.5-1.6.6,2.7,2.5,3.2a16.3,16.3,0,0,0-.6-5.4c-1-2.8-.9-5.8-2.2-8.6-.5-1.1.2-2.1,1.4-2.5s2.4-2.1,3.9-.4c.2.2.3.4.5.4s2.3,1.3,2.1,3.1c1.4-.1,1.7-.9,1.8-1.9a19.4,19.4,0,0,1,.2-2.4,2.4,2.4,0,0,1,1.7-1.9c1-.2,1.2.7,1.6,1.3s1.5,1.6,2.4-.2,1.5-1.7,2.8-.9l.9.4c2.7-.9,5.8-.4,8.2-2.3a6.1,6.1,0,0,1,1.8-.9A35.1,35.1,0,0,1,267,28.4a41.7,41.7,0,0,1,10.4,4.4,3.2,3.2,0,0,1,1.2,1.1c.4.6.9,1.4.1,2s-1.1-.2-1.5-.8-.4-.5-.6-.4c-1.8.9-3.8-.2-5.8.7a16.4,16.4,0,0,1-7.3,1.3c-2.1-.2-4.1-.1-5,2.3s-1.5,1.2-2.2,1.8-2.4,2.1-2.3,4-.1,1.4.7,1.7,1.2-.1,1.7-.5l6-5.1c1.1-1,2.1-1.8,3.6-.8s1.2-.2,1.8-.3a20.6,20.6,0,0,0,6.9-1.7,1.4,1.4,0,0,1,1.4.1c2.1,1.5,4.3,1,6.6.5a1.5,1.5,0,0,1,1.3.2c2.4,1.6,3.9,4,6.1,6.4,2.3-.5,4.2.9,6,2.9s4.7,3.3,6.7,5.5a32.7,32.7,0,0,1,6.7,8.6c1.3,2.7,3.7,4.5,5.8,6.5a28.3,28.3,0,0,1,6.8,10.7A71.4,71.4,0,0,0,328,91.6c2.4,4,3.3,8.4,5.5,12.3.3.5.4,1.2,1.1,1.4s-.1-1.3.7-1.9a2.4,2.4,0,0,0,2.6-.5c.8-.9,1.6-.4,2.1.5s.7,1.6,1.9,1.8a2.8,2.8,0,0,0-.5-3.3c-2.5-3.1-3.5-6.8-5.3-10.3-.7-1.3-1.8-2.3-1.9-3.9s-.7-1.9.5-2,2.5-.9,3.3.8,2.1,4.5,3.4,7a3.8,3.8,0,0,0-.1-3c-.5-1.6-1.4-3-1.4-4.8s-.7-1.4-1.4-1.9a8.5,8.5,0,0,1-2.4-3.7c-.2-.5-.4-1.1.1-1.5a1.2,1.2,0,0,1,1.5.4,17,17,0,0,1,2.9,3.1c2.6,4.7,5.9,8.9,8.8,13.4,1.1,1.6,1.4,3.5,2.7,5.1s4.9,4.3,6.9,6.9a3.9,3.9,0,0,1,.8,4.1,3.2,3.2,0,0,0,1.5,4.3c2,1.3,2.2,3.4,1.2,5.5s-2.3,5.9-3.4,8.9-1.2,3.5-4.9,3.3a17,17,0,0,1-.6,3.1c-.5,1.3,0,2.2,1.4,2.7s4.7,2.6,5.4,5.6a3.2,3.2,0,0,0,1.7,1.9c2.3,1.5,2.9,3.8,2.5,6.4a8.3,8.3,0,0,0,.4,4.4,5.1,5.1,0,0,1-3.2,6.4,2.1,2.1,0,0,1-1.9-.3c-1.7-.7-3-1.9-4.8-2.7,2.3,4.3,4.2,8.8,4.1,13.5s1.7,9.2-.2,14a5.4,5.4,0,0,1-2-3,51.5,51.5,0,0,0-4.9-10l-1.1-2.4c-.7-2.1-2.4-3-4.3-3.7a1.7,1.7,0,0,0-1.8.5,4.6,4.6,0,0,0-1.4,2c-1,3.7-2.5,7-5.5,9.5-.9.7-.7,1.7.2,2.4a7.5,7.5,0,0,0,3,1.7c3.4.9,6.4,2.4,8.4,5.4a16.6,16.6,0,0,1,3.2,9.8c-.2,3.6-1.5,7.1-5,9.1l-.6.3h-.5a5.4,5.4,0,0,1,.2-3.1,5.9,5.9,0,0,0-3.1-6.9l-3.5-1.6c-.5-.3-1.1-.7-1.5-.6-2.7.9-4.2-1.2-6-2.5l-1.2-.7c-1.3-1-2-.8-2.3,1a29.2,29.2,0,0,1-1.2,4.9c-.6,2.1-1.3,2.3-3.1,1a13.9,13.9,0,0,1-5.5-10.3c-.4-3-1.1-6-1.6-9-.2-1.5-1.1-2.7-1.7-4.1-1.7-3.9-2.5-8.1-4.5-11.9-.2-.4-.3-.8-.6-1-3.8-3.5-5.9-8.1-8.9-12.1a25.5,25.5,0,0,1-4.7-9.1c-.6-2.2-2-4.1-2.6-6.4a30.4,30.4,0,0,1-1.2-12,4.3,4.3,0,0,0-.4-2.7,2.5,2.5,0,0,1-.2-1.2c.9-4.1-.5-7.8-1.5-11.7-.6-2.3-.5-4.8-1.3-7.1a10.1,10.1,0,0,0-2.3-3.5c-2.8-2.9-5.9-5.4-8.6-8.4s-5.1-5.3-8.7-6.4a6,6,0,0,1-3-1.7c-1.6-1.6-3.9-1.9-5.9-2.5s-4.9-2.6-7.1-4.2a3.4,3.4,0,0,0-3.3-.9c-1.8.6-3.4-.9-5.2-.4-4.3,1.1-8.8.2-13.1,1.3a20.7,20.7,0,0,0-5.4,1.5c-1.3.6-2.7,1.3-4.2.2s-1.3,0-1.7.6a2.8,2.8,0,0,1-2.9,1.5c-3-.3-5.6,1.3-8.5,1.3s-3.8.4-5.7.4-1.8,1.2-2.6,1.9-1.6,1.3-2.8.5a1.7,1.7,0,0,0-1.9.1c-3.5,4.3-8.8,6-12.8,9.4-1.2,1.1-2.9,1.2-4.2,1.9-4.4,2.5-8.7,5.1-12.2,8.7s-6.6,4.5-9.5,7.2-6.3,4.3-8.6,7.7-4.9,6.5-6.7,10.1-3.8,8.1-3.4,12.7a2.9,2.9,0,0,1-.1,1.6c-1.1,2.3-.5,4.2.9,6.1s-.2,3.7.6,5.5.2,1,.4,1.5a34.3,34.3,0,0,1,3.3,15.1c-.1,1.9-1.1,3.6-1.4,5.5s-1.9,5.9-.9,9.1a2.9,2.9,0,0,1-.2,1.8,3.1,3.1,0,0,0,3.2,3.7,84.3,84.3,0,0,1,8.7-.3c4.2.1,8.7-.8,12.2,1.9s10,3.4,14.9,5.4c2.1.8,3.9,2.3,6,3.2s1.7,2.8.6,4.1a3.4,3.4,0,0,0-.7,2.9,49.1,49.1,0,0,1-.1,15.3c-.9,4.7-4.3,8-10.3,6.7-2-.4-4.8,1.4-5.1,3.4a2,2,0,0,1-1.2,1.6,11.4,11.4,0,0,0-3,2.3c-3.9,4.4-9.4,4.7-14.5,6.1h-.6c-2-1.3-4.5-1.3-6.6-2.2l-4-1.8c-1.9-.8-2.9-2.8-4-4.4s-2.4-2.6-4.7-1.9-4.7.6-7,.4a5.6,5.6,0,0,1-4.6-4.1c-.7-1.9-1.1-3.9-1.7-5.9s-2.5-4-5.5-2.9c-1.1.4-1.9.4-2.3-.8a1.5,1.5,0,0,0-1.6-1.1c-1.8-.1-2.2-1.2-2.3-2.7s-.9-5.2-.8-8c.1-4.5-2.7-7.2-7.2-8a4.3,4.3,0,0,1-2.3-1.2,14,14,0,0,0-3-2.3,7.2,7.2,0,0,1-3.4-4.4c-.9-3.7-3.1-6.6-5.5-9.4a8.5,8.5,0,0,1-2.3-6c.2-4.4-.1-8.7-2.6-12.5a3.6,3.6,0,0,1-.3-1.8c0-.8.4-1.5-.8-1.9s-.6-1.4-.5-2.2c.5-4.5,2.1-8.6,3.9-12.8a106.6,106.6,0,0,1,4.7-9.6,4.1,4.1,0,0,0,.4-3.7,3.9,3.9,0,0,1-.1-2.4c.1-.6.1-1.3-.5-1.6s-1.2-1.8-.7-2.9c2.3-4.8,4.3-9.7,6.7-14.5.8-1.6.8-3.6,1.9-5.1s.6-1,1.4-1,2.2-1,2.2-2.4.4-2.3,1.7-2.4c3-.3,4.6-2.6,6.6-4.3s1.7-1.9,3.2-1.9S112.2,93.8,113.4,93.4ZM258.2,35.6c-.8-.6-1.5,0-2.1.2-2.3,1-4.7.4-7,.7a5.6,5.6,0,0,0-2.6.7c-1.8,1-3.5,2-5.8,1.6s-6.6,3.3-6.5,6.1c.1,1.1-.6,1.7-1.8,1.6s-.8-.6-1.4-.2.7,2.1,0,3.3.4,1,.9,1.2,1.1.5,1.5,0c1.9-2,4.3-3.5,5.2-6.3a2.9,2.9,0,0,1,2.8-2.3c-1.1,2-.5,4-1.4,5.8s-.9,1.9.4,2.6,1.8-.3,2.3-1.3a12.1,12.1,0,0,1,4.3-4.4c3-1.7,5.5-4,8.3-5.9A6.9,6.9,0,0,0,258.2,35.6ZM162,226a3.3,3.3,0,0,0-3.4.9C160.5,227.9,161.2,227.7,162,226Z"/><path d="M248.4,209.6a6.5,6.5,0,0,1,2.9,3.4c.3.9,1.4,1,2.3,1l3.1-.2a5.5,5.5,0,0,1,3.5.8,2.9,2.9,0,0,1,1.6,2.6c.1.9-1,1.1-1.7,1.6-2.2,1.4-4.7,2.3-6.3,4.8s-3.1,2-5,2.4c-6.9,1.4-13-1-19.1-3.9-3.7-1.8-7.3-3.6-10.2-6.5l-2.2-2.4c-1.2-1.2-2.3-2.6-4.4-1.4H212c-3.3-1.4-6.6-2.8-9.1-5.4a4.4,4.4,0,0,0-1.9-1c-3.4-.9-6.1-3.6-9.9-3-.9.1-1.1-.7-1.3-1.3s-.5-2.5.6-3.4a.5.5,0,0,1,.5-.3c3-.2,4.7-3,7.4-3.9s2-2.1,1.6-3.7,0-2.4,1.8-2.5a7.8,7.8,0,0,0,4.6-2.3c2.2-2.1,5.1-3,7.1-5.3l.3-.2c3.9-.6,7.2-3,11.2-3.5s9.2-1.7,13.9-2.4h1.6c2.4,1,4.7.5,7-.2a8.5,8.5,0,0,1,3.6-.5,6.5,6.5,0,0,0,1.9-.4c2.2-.2,3.2-3.5,5.2-2.6s3.9-.2,5.8-.7h.7c.6.8,0,1.4-.3,1.9s-1.2,1.1-.4,2.1,1.5,1.7,2.7,1.2c3.4-1.6,6.4-.2,9.3,1.1a18.1,18.1,0,0,1,7.2,6.3c1.1,1.6,2.8,2.7,2.9,4.9s.6,2.4-.3,2.9-2.5,1.9-4.1.9a3.6,3.6,0,0,0-3.5.2c-1.6.7-1.9,2.2-.6,3.2s1.6,3.2,2.7,4.7-.1,1.2-.7,1.6a7.1,7.1,0,0,1-6.1,1.4,6.4,6.4,0,0,0-4.1.5,4.7,4.7,0,0,1-2.6.5,8.5,8.5,0,0,0-5.1,1.7,6.8,6.8,0,0,1-4.2,1.5c-2.9.1-5.4,1.7-8.1,2.6A1.5,1.5,0,0,0,248.4,209.6Zm-5.6,2.2,2.1-.4c.6-.2,1.6,0,1.6-.9s-1-1.2-1.8-1.1a5.6,5.6,0,0,1-4.1-1.8l-1.8-1.7a1.7,1.7,0,0,0-2.9,1.4,5,5,0,0,0,.8,2.6C238.2,212.3,240.5,211.4,242.8,211.8ZM260.9,195c-2.9-3.6-14.3-4.2-15.9-.8C250.3,195,255.6,194.3,260.9,195Z"/><path d="M216.1,291.5c-3.4,0-6.5,1.4-9.8,1.7l-9.8,1.2a2.2,2.2,0,0,1-2.7-2.1c-.7-5.6-4.1-9.1-8.8-11.7l-3.3-1.6a3.9,3.9,0,0,0-5.1,1.3c-1.8,2.8-3.3,5.8-2.4,9.4s-.8,5.6-3,7.5-4.1,3.5-4.3,6.5c0,1.1-.5,1.9-1.8,1.6-4.1-1.1-8,.2-12,.6s-4.1.7-6.3-3.1-2.2-5.7-4.3-8.2a6.4,6.4,0,0,1,.9-9.5c1.8-1.2,4-1.5,5.7-3.1a3,3,0,0,1,3.6-.3c1.2.6,2.1-.1,2.9-1s.8-1.4,1.6-1.3c2.3,0,3-1.6,4.2-3.2,2.4-3.2,4.9-6.5,8.3-8.8,1.8-1.3,2.8-3.3,3.9-5.2a13.1,13.1,0,0,1,2.1-2.7c.4-.4.9-.9,1.6-.5s.5.9.5,1.4c-.2,2.5-.5,5-2,7.2a2.2,2.2,0,0,0,.2,3.2,5.3,5.3,0,0,1,1.5,2.6c.5,1.7,1.9,2.2,3.5,1.6s4.9-2.4,6.2-5a2.6,2.6,0,0,1,2.9-1.4,6.5,6.5,0,0,1,2,.2c3.9,1.4,7.9,1,11.9,1.1a8.7,8.7,0,0,0,5.2-1.6,5.6,5.6,0,0,1,5.2-.8,9.7,9.7,0,0,0,3.8.3,69.1,69.1,0,0,1,9.1-.2c2.8.3,4.8-1.5,7-2.7s1.5-1.3,2.3-.3,0,1.4-.4,2.1c-2.6,4.9-6.8,8-11.7,10.3-1.5.7-3.2,1-4.6,2.3s-1,1.5,0,2.3,3,3.6,1.9,5.7S219.3,292,216.1,291.5Zm-69.5,2.1c-.8-1.1-1.2-2.2-2.5-2.5C143.9,293.8,144.4,294.4,146.6,293.6Z"/><path d="M261.6,304.6c-5.1-.6-9,.8-12.8,2.9a12.1,12.1,0,0,1-7.7,1.7,12.4,12.4,0,0,0-8.2,2.4c-3.1,2.3-6.7,3.2-10.2,4.4-6.8,2.4-13.9,2.1-21,2-1.6-.1-3.2-.5-4.8-.7s-4.1-.5-5.8,1.2-1.6.4-2.5.2a6.2,6.2,0,0,0-5.3.4c-1.9,1.1-4.1.5-6.2.6s-1.2-.6-1.3-1.5a15.8,15.8,0,0,0-5-10.3c-1.3-1.1-.7-1.9.6-2.3s4.3-1.1,6.2.5c3.8,3.4,7.7,2.5,11.6.4s6.4-2.9,9.6-4.3a9,9,0,0,1,2.2-.6c6.3-.4,12.4-1.1,18.4-3.4s11.7-1.5,17.7-1.3,10.1.6,15.2.2a8.9,8.9,0,0,0,3.3-1.4c2.6-1.1,5.4-1.3,8-2.4s2.2.5,2.6,1.6a4.7,4.7,0,0,0,2.3,2.7c1.1.8,2.1,1.9,1.7,3.4a3.4,3.4,0,0,1-3,2.6C265.1,304,263.1,305,261.6,304.6Z"/><path d="M191.7,321.3c2.9.7,5.6,1.1,8.2,1.9a27.7,27.7,0,0,0,12.5.4c5.7-.9,11.1-3,16.7-4.2,3.4-.8,6.3-2.9,9.2-4.7s3.5-1.7,5-3.3l-.6,3c-.2,1,.1,1.5,1.2,1.6,2.6.1,3.2,1.3,1.8,3.5a22,22,0,0,1-4,5.1,13.2,13.2,0,0,0-3.6,5.6c-1.1,3.1-3.6,4.3-6.4,5.5s-6.1,1.8-9.1,2.8a7.3,7.3,0,0,1-3.6.1,27.9,27.9,0,0,0-10.7,1.7,2.8,2.8,0,0,1-2.8-.5,6.5,6.5,0,0,0-3.7-1.6,1.9,1.9,0,0,1-1.7-1c-.6-1.8-2.2-2.6-3.7-3.3s-3-2.7-3.6-4.8A45.8,45.8,0,0,1,191.7,321.3Z"/><path d="M267.5,278.8c.7-1.6-.1-2.3-1.1-3-5.3-4.1-10.7-8-16.3-11.8-2.3-1.5-4.6-3-5.9-5.6-.3-.4-.8-.8-.5-1.4s1-.6,1.6-.5a13.1,13.1,0,0,1,5.2,1.5c3.3,1.8,7.2,2.1,10,4.9.2.3.5.6.8.6,2.3.1,3.2,2,4.7,3.3s4.4,4.5,6.7,6.6a4.7,4.7,0,0,1,1.5,4.6c-.3,1.9-.9,2.3-2.7,1.5S269.3,278.6,267.5,278.8Z"/><path d="M227.2,13.8c2,2.8,4.8.7,7.1,1.2,4.2.8,8.3,2.1,12.5,2.6a44.7,44.7,0,0,1,11.8,3.6l1.3.5c.5.3.9.7.6,1.4a1.2,1.2,0,0,1-1.3.4c-5.3-1.6-10.8-1.7-16.3-1.7a5.2,5.2,0,0,1-3.5-1.4,11.7,11.7,0,0,0-6.7-2.9,18.9,18.9,0,0,0-5.3-.3c-.8.1-1.8-.2-1.6-1.3A2.2,2.2,0,0,1,227.2,13.8Z"/><path d="M220,15.1c-1.1-.4-2.6-.7-2.8-2.1s1.2-1.4,2.2-1.3,2.5.5,2.5,2.1S221.1,15.2,220,15.1Z"/><path d="M194.5,30.4a2.2,2.2,0,0,1-2.6.4c-.7-.3-1.4-.9-.9-1.7a1.2,1.2,0,0,1,1.9-.2A11.4,11.4,0,0,1,194.5,30.4Z"/><path d="M332,74.4a4.8,4.8,0,0,1-2.3-4.2C331.6,71.1,332,72.4,332,74.4Z"/><path d="M244.3,6.5c-1.5.6-2.8-.1-4.7-.4A4.3,4.3,0,0,1,244.3,6.5Z"/><path class="cls-1" d="M349.6,251.7c.7,2.9,2.4,5.9.7,9.5C349.2,257.8,350.4,254.7,349.6,251.7Z"/><path class="cls-1" d="M404,296.9c.4.1.7.2.7.6s-.3.8-.8.8-.6-.2-.6-.6A.8.8,0,0,1,404,296.9Z"/></svg>